<?xml version="1.0" standalone="no"?>
<!DOCTYPE svg PUBLIC "-//W3C//DTD SVG 20010904//EN"
 "http://www.w3.org/TR/2001/REC-SVG-20010904/DTD/svg10.dtd">
<svg version="1.0" xmlns="http://www.w3.org/2000/svg"
 width="236.000000pt" height="236.000000pt" viewBox="0 0 236.000000 236.000000"
 preserveAspectRatio="xMidYMid meet">
<metadata>
Created by potrace 1.16, written by Peter Selinger 2001-2019
</metadata>
<g transform="translate(0.000000,236.000000) scale(0.100000,-0.100000)"
fill="#000000" stroke="none">
<path d="M0 1245 c0 -885 3 -1115 13 -1116 25 -3 123 2 140 7 24 7 11 24 -21
26 -15 1 2 4 38 8 l65 7 -55 2 -55 2 39 14 c21 7 42 19 46 26 4 6 13 8 19 5 6
-4 11 0 11 11 0 11 13 24 30 31 17 8 28 18 24 23 -3 5 2 9 10 9 9 0 16 6 17
13 1 6 5 1 10 -13 7 -20 7 -17 4 15 -2 22 -6 50 -8 63 -2 12 1 22 7 22 7 0 7
3 -1 8 -17 10 -9 88 13 131 13 27 15 38 5 53 -9 15 -8 20 3 24 9 3 21 4 28 1
9 -4 8 -6 -2 -6 -12 -1 -15 -13 -15 -48 0 -30 4 -48 12 -48 19 0 28 -15 28
-48 1 -32 45 -180 56 -185 3 -1 4 -30 2 -65 -4 -67 -24 -97 -67 -97 -28 0 -52
-15 -38 -24 6 -3 13 -2 17 4 3 5 19 10 34 10 16 0 34 7 41 15 7 8 18 15 24 15
6 0 4 -4 -4 -10 -29 -18 -4 -18 37 0 35 15 77 60 58 60 -4 0 0 7 8 14 11 11
13 26 7 55 -4 23 -3 41 1 41 5 0 9 -13 9 -30 0 -16 5 -30 10 -30 9 0 15 49 12
95 -2 15 0 17 7 6 10 -16 31 -6 31 15 0 8 4 13 9 9 6 -3 14 3 20 12 9 16 10
16 11 2 0 -9 -7 -22 -16 -29 -27 -23 -36 -48 -24 -70 8 -16 7 -25 -5 -43 l-16
-22 6 27 c4 15 2 35 -4 45 -9 15 -10 13 -9 -14 2 -22 -5 -40 -20 -56 -29 -30
-28 -45 0 -21 13 10 17 12 10 4 -6 -8 -12 -24 -12 -37 0 -13 -9 -27 -22 -34
-21 -11 -22 -11 -9 5 12 14 12 16 -3 10 -9 -3 -16 -12 -16 -19 0 -13 -21 -25
-43 -25 -7 0 -6 4 3 10 27 18 1 10 -40 -11 -26 -14 -49 -19 -65 -15 -21 5 -24
3 -22 -16 3 -29 39 -54 47 -32 4 11 9 12 31 0 35 -18 69 -5 62 24 -4 15 -11
20 -24 17 -12 -3 -19 0 -19 9 0 17 5 17 30 4 13 -7 21 -7 25 0 3 5 11 10 17
10 7 0 7 -4 0 -13 -14 -17 -5 -54 15 -61 9 -4 23 -1 32 6 12 9 12 7 -2 -7 -14
-16 -21 -17 -36 -8 -11 7 -23 8 -32 2 -20 -12 -67 -11 -71 2 -2 7 -9 5 -17 -5
-12 -15 0 -16 144 -16 132 0 156 2 146 14 -9 11 -6 12 15 8 16 -3 25 -1 21 5
-8 12 59 11 70 -1 4 -5 3 -6 -3 -3 -6 4 -20 0 -30 -8 -17 -13 3 -15 169 -14
142 0 186 3 180 12 -4 8 -1 8 9 -1 13 -10 106 -12 440 -11 232 1 412 5 398 9
l-25 8 33 13 c17 7 32 17 32 21 0 4 7 8 16 8 9 0 32 10 51 21 33 20 33 22 17
40 -14 15 -19 17 -26 7 -6 -10 -12 -9 -23 6 -19 26 -33 11 -17 -17 8 -13 2 -9
-12 8 -22 26 -26 27 -26 10 0 -14 -3 -16 -11 -8 -6 6 -18 9 -25 6 -8 -3 -14
-1 -14 5 0 5 25 21 55 36 30 14 55 28 55 32 0 10 -23 48 -38 63 -13 13 -14 12
-8 -9 7 -24 7 -24 -9 -5 -14 17 -17 18 -25 5 -6 -9 -10 -11 -10 -3 0 7 -7 10
-15 7 -8 -4 -15 -1 -15 5 0 5 18 16 40 22 31 9 39 16 34 28 -3 9 -10 27 -15
41 -9 24 -19 28 -67 32 -20 2 -7 23 16 26 12 2 22 9 23 15 4 41 -5 74 -23 88
-15 12 -17 18 -8 24 14 9 4 96 -12 106 -7 4 -6 13 1 27 13 25 15 74 2 53 -5
-7 -13 -11 -18 -8 -6 4 -20 -5 -33 -18 -18 -19 -26 -22 -37 -14 -10 9 -13 8
-13 -5 0 -27 -41 -13 -55 20 -8 16 -14 23 -14 17 -1 -19 -39 -54 -46 -43 -4 6
-3 19 0 30 5 14 2 20 -9 20 -10 0 -16 9 -16 23 -1 19 -2 20 -13 6 -10 -13 -43
-18 -66 -10 -2 0 4 12 13 26 9 14 15 29 12 33 -2 4 4 19 14 32 17 22 22 23 40
12 17 -10 20 -10 20 4 0 8 -5 12 -11 8 -7 -4 -10 0 -7 10 1 10 8 17 13 17 6 0
13 9 17 20 5 12 14 19 20 16 7 -2 22 0 32 6 15 7 22 5 32 -8 8 -11 19 -15 34
-10 28 9 63 -15 84 -59 18 -38 36 -39 69 -3 20 24 21 28 5 62 -13 30 -28 33
-28 5 0 -30 -16 -24 -30 10 -7 17 -15 30 -19 30 -13 0 -81 72 -75 81 3 5 0 9
-6 9 -8 0 -11 20 -8 62 2 53 7 66 32 90 19 19 27 34 23 48 -6 24 6 26 28 4 9
-9 18 -15 20 -12 2 2 -25 34 -60 71 -36 38 -65 74 -65 81 0 8 -11 21 -25 30
-33 22 -32 13 5 -33 17 -21 30 -42 29 -47 -3 -21 14 -54 32 -59 23 -7 25 -25
4 -25 -8 0 -20 -9 -27 -20 -7 -11 -18 -20 -25 -20 -7 0 -16 -7 -21 -15 -7 -13
-10 -12 -20 9 -6 14 -23 28 -38 32 -26 7 -26 8 -9 20 18 13 18 15 -3 37 -12
13 -22 29 -22 35 0 7 -4 12 -10 12 -5 0 -7 -8 -3 -17 5 -14 1 -13 -16 5 -12
12 -32 22 -45 22 -13 0 -26 7 -30 15 -3 8 -10 15 -16 15 -6 0 -9 -3 -7 -7 2
-5 -9 -21 -25 -36 -18 -18 -28 -23 -28 -13 0 7 -11 17 -24 20 -13 3 -31 17
-40 30 -8 14 -54 45 -100 71 -77 42 -91 46 -160 48 -74 2 -95 15 -45 28 13 3
23 12 21 19 -2 7 3 17 10 21 20 13 28 11 22 -6 -9 -21 2 -19 25 6 19 21 22 21
45 6 23 -16 44 -8 32 11 -7 11 15 36 57 61 29 18 41 21 50 12 15 -15 27 -14
27 4 0 19 29 31 80 34 13 1 13 2 0 11 -11 7 -7 10 20 11 19 1 42 3 50 4 8 1
21 -3 28 -8 7 -6 12 -6 12 1 0 12 69 21 76 10 3 -4 15 -8 28 -8 13 0 42 -14
64 -30 23 -17 42 -27 42 -23 0 13 29 -32 30 -45 0 -8 -25 -37 -55 -66 -37 -35
-55 -60 -55 -76 l0 -23 23 21 c12 11 27 22 34 24 10 3 69 -71 61 -77 -2 -1
-12 -7 -23 -13 -19 -11 -19 -11 3 -12 36 0 129 29 142 45 6 8 10 22 8 31 -4
25 -28 30 -28 6 0 -23 -14 -35 -57 -50 -29 -10 -32 -9 -38 16 -4 15 -13 35
-22 44 -16 18 -8 42 12 34 7 -2 17 0 23 6 8 8 16 7 28 -3 12 -9 15 -10 10 -1
-4 6 -3 12 2 12 15 0 22 42 10 57 -9 11 -7 12 8 7 10 -4 16 -4 12 0 -5 6 -25
12 -50 15 -6 1 -17 25 -19 46 -2 19 -20 46 -27 41 -4 -3 -9 7 -10 22 -1 14 -6
28 -10 31 -4 3 -13 19 -20 34 -7 15 -16 25 -22 22 -5 -3 -12 10 -16 30 -3 19
-10 37 -14 40 -5 3 -6 -4 -3 -15 3 -11 0 -20 -6 -20 -6 0 -12 6 -13 13 0 6 -2
17 -2 22 -3 17 -26 55 -34 55 -4 0 -7 -16 -6 -35 2 -30 0 -34 -12 -24 -10 8
-11 15 -4 24 11 13 -4 35 -36 53 -8 5 -16 17 -18 27 -2 17 -32 45 -47 45 -14
0 5 -53 21 -57 27 -7 42 -48 29 -80 -10 -26 -11 -27 -21 -9 -8 15 -8 21 0 24
23 7 12 30 -24 51 -27 16 -34 26 -29 40 4 14 -2 23 -24 34 -29 14 -41 13 -41
-5 0 -4 8 -8 18 -9 10 0 12 -3 5 -6 -21 -8 -15 -33 7 -33 19 0 43 -36 45 -68
0 -7 7 -18 15 -23 13 -9 12 -10 -2 -5 -10 3 -20 1 -23 -3 -6 -11 20 -33 29
-24 10 10 35 -29 36 -54 0 -36 37 -24 53 17 4 11 6 10 6 -5 1 -21 -51 -73 -57
-56 -2 6 -23 8 -51 4 l-48 -5 5 31 c4 26 1 31 -17 31 -11 0 -21 -5 -21 -12 0
-12 -15 -2 -15 10 0 4 -4 13 -8 20 -9 14 -67 17 -67 3 0 -15 32 -22 46 -10 10
8 14 3 19 -24 5 -23 14 -37 26 -40 10 -3 19 -11 19 -17 0 -7 -7 -10 -15 -6 -8
3 -15 1 -15 -4 0 -5 -6 -7 -14 -4 -8 3 -23 -4 -33 -15 -18 -22 -39 -29 -27
-10 4 8 0 9 -15 4 -15 -4 -21 -2 -22 9 -3 29 -4 34 -11 42 -5 4 -8 0 -8 -10 0
-12 -5 -16 -19 -11 -12 3 -21 0 -25 -10 -3 -8 0 -16 7 -16 36 -4 37 -5 37 -39
0 -11 -7 -20 -15 -20 -9 0 -12 6 -8 18 4 11 -3 8 -22 -10 -15 -16 -36 -28 -46
-28 -10 0 -30 -10 -45 -22 -34 -31 -66 -38 -80 -19 -10 12 -17 13 -37 4 -21
-10 -28 -8 -46 11 -23 24 -28 56 -10 56 8 0 8 4 0 14 -19 23 31 26 54 3 20
-19 20 -19 -2 -13 -13 4 -23 3 -23 -3 0 -5 -3 -16 -6 -25 -5 -13 1 -16 34 -16
26 0 42 -5 46 -15 7 -19 40 -19 56 0 14 17 10 47 -7 52 -7 3 -9 -3 -6 -16 3
-14 1 -21 -8 -21 -19 0 -45 18 -37 25 6 7 -21 42 -66 86 -23 21 -33 26 -43 17
-9 -7 -13 -7 -13 1 0 6 5 11 10 11 17 0 11 28 -11 48 -23 23 -68 26 -76 6 -3
-8 -9 -11 -14 -8 -5 3 -9 1 -9 -4 0 -19 26 -30 61 -27 33 3 35 1 31 -21 -2
-13 -9 -22 -14 -21 -21 4 -18 -22 3 -42 17 -15 19 -21 8 -21 -33 0 -56 63 -27
72 13 5 2 28 -13 28 -6 0 -7 -5 -3 -12 5 -8 2 -9 -12 -3 -60 27 -135 -7 -90
-41 11 -8 14 -14 8 -14 -7 0 -12 -6 -12 -14 0 -20 -16 -29 -40 -21 -24 8 -25
18 -5 39 12 12 14 20 5 36 -6 11 -7 20 -3 20 8 0 -18 20 -27 20 -13 0 -10
-112 5 -139 8 -17 15 -39 15 -49 0 -11 7 -25 15 -32 19 -16 19 -40 0 -40 -9 0
-18 -12 -22 -30 -3 -16 -12 -30 -19 -30 -23 0 -16 -30 10 -40 32 -12 41 -29
20 -37 -15 -6 -14 -7 5 -15 21 -7 21 -9 6 -24 -9 -9 -15 -24 -13 -32 4 -20 47
-32 70 -20 14 7 16 5 12 -9 -5 -15 -3 -15 11 2 l17 20 -6 -20 c-6 -23 7 -50
21 -42 18 11 42 -16 33 -38 -7 -17 -9 -17 -9 -2 -1 9 -7 17 -15 17 -8 0 -22
10 -30 21 -11 16 -21 20 -41 15 -14 -4 -28 -13 -32 -21 -6 -17 14 -46 31 -44
29 4 47 -2 40 -12 -5 -8 1 -10 19 -7 15 3 24 1 21 -3 -3 -5 -11 -9 -19 -9 -19
0 -29 -38 -15 -55 9 -10 9 -15 1 -15 -6 0 -13 12 -17 28 -12 55 -16 62 -31 62
-9 0 -25 8 -36 18 -15 13 -21 14 -24 4 -4 -10 -9 -10 -23 3 -12 11 -20 13 -25
6 -4 -7 -14 -4 -27 9 -16 14 -19 26 -15 49 4 17 2 33 -3 36 -6 3 -10 -2 -10
-11 0 -15 -3 -15 -23 4 -23 21 -57 30 -57 14 0 -4 9 -13 20 -20 12 -7 18 -17
15 -22 -4 -6 -11 -8 -16 -4 -5 3 -7 10 -3 15 3 6 -3 5 -14 -2 -28 -17 -20 -26
22 -24 21 0 38 -5 40 -12 3 -7 -1 -13 -9 -13 -22 0 -20 -50 3 -51 9 -1 32 -3
50 -5 25 -3 32 0 33 14 0 9 5 2 10 -16 6 -21 15 -32 23 -29 6 3 23 -1 35 -8
18 -9 21 -14 10 -20 -7 -5 -14 -4 -17 3 -2 7 -11 12 -20 12 -8 0 -23 7 -32 15
-22 20 -56 9 -39 -11 6 -8 7 -14 3 -14 -5 0 -15 9 -22 20 -15 25 -32 26 -32 3
0 -14 -6 -11 -25 12 -17 21 -23 38 -19 57 3 15 0 29 -7 34 -9 5 -10 2 -6 -10
6 -15 3 -14 -19 3 -32 25 -63 29 -44 6 10 -12 10 -15 -1 -16 -8 0 -5 -4 6 -9
19 -8 19 -9 -2 -9 -16 -1 -22 4 -21 17 3 35 -2 63 -10 58 -11 -6 -52 22 -52
35 0 6 9 7 21 4 20 -7 20 -6 5 18 -15 22 -15 25 -1 37 9 7 14 18 12 25 -3 6 9
17 25 24 22 10 26 16 17 22 -7 4 -16 6 -20 3 -4 -2 -7 5 -6 16 1 11 6 20 11
20 5 0 7 3 4 6 -4 3 -18 -2 -32 -11 -25 -17 -26 -17 -20 0 7 17 6 17 -19 0
-35 -22 -71 -16 -75 13 -2 13 3 24 12 28 9 3 14 9 11 13 -2 4 18 18 45 30 66
30 65 46 -2 37 -28 -4 -59 -11 -67 -16 -9 -4 -28 -6 -43 -3 -23 4 -26 8 -17
24 8 16 6 19 -16 19 -28 0 -32 12 -10 30 16 13 21 35 6 26 -5 -3 -11 1 -15 9
-3 9 0 15 9 15 21 0 65 22 65 32 0 5 -8 7 -18 4 -64 -18 -79 -17 -85 3 -3 12
-1 24 4 27 14 8 5 29 -12 29 -8 0 -18 10 -24 23 -5 12 -13 22 -18 22 -5 0 -6
9 -2 20 3 10 2 28 -4 38 -12 23 3 42 35 42 38 0 37 19 -1 26 -30 5 -33 9 -25
24 7 13 7 21 -1 25 -13 8 18 45 38 45 7 0 13 5 13 11 0 8 -12 10 -35 6 -21 -4
-33 -2 -30 4 12 19 -6 49 -28 46 -17 -2 -21 3 -20 21 2 15 -3 22 -15 22 -16 1
-16 1 0 11 10 5 30 8 45 5 16 -2 31 -5 35 -5 4 -1 5 -8 2 -16 -5 -11 1 -13 28
-9 25 4 42 -1 71 -20 21 -14 50 -32 65 -40 15 -8 52 -37 82 -64 30 -28 58 -48
62 -46 5 3 8 -1 8 -9 0 -16 122 -110 147 -113 8 -2 25 -12 37 -23 26 -24 56
-30 37 -7 -9 11 -6 15 14 20 14 4 25 11 25 16 0 11 -51 60 -62 60 -5 0 -8 7
-8 15 0 24 -65 30 -98 10 l-27 -18 24 26 c12 14 20 30 16 36 -3 6 1 11 9 11 9
0 16 -7 16 -16 0 -14 3 -14 15 -4 12 10 13 16 4 27 -7 7 -9 16 -5 20 3 3 6 1
6 -5 0 -7 3 -11 8 -11 4 1 15 1 25 0 14 -1 15 -4 5 -21 -17 -26 -8 -32 31 -17
26 9 33 9 40 -1 5 -8 12 -13 17 -12 5 1 10 -3 12 -9 2 -6 -6 -11 -17 -11 -12
0 -21 -6 -21 -15 0 -11 9 -15 32 -14 18 0 44 -2 58 -6 22 -6 20 -3 -15 29 -34
31 -38 39 -28 55 12 19 8 31 -10 31 -5 0 -7 -7 -4 -15 7 -16 -12 -32 -22 -19
-3 5 -26 19 -51 32 -25 12 -38 21 -30 19 15 -4 33 10 37 28 1 6 -11 11 -25 12
-26 1 -26 1 -7 -14 19 -15 18 -15 -13 -9 -18 3 -31 2 -27 -3 3 -5 -4 -7 -15
-4 l-21 6 21 14 c25 17 26 33 3 33 -15 0 -16 -2 -3 -10 10 -6 -2 -10 -40 -12
-41 -3 -50 -6 -35 -12 11 -4 34 -14 50 -22 27 -12 28 -14 7 -14 -12 0 -25 -7
-28 -15 -10 -25 -25 -17 -18 10 6 25 -4 31 -43 26 -8 -1 -10 5 -7 14 4 11 0
15 -17 15 -26 0 -23 7 6 12 11 1 25 8 30 14 12 14 142 56 242 78 162 36 496
22 583 -24 12 -6 26 -9 33 -6 7 2 4 5 -5 5 -10 1 -18 6 -18 11 0 6 -7 10 -15
10 -8 0 -15 5 -15 10 0 7 6 7 19 0 11 -5 28 -10 38 -10 17 1 17 1 0 14 -17 13
-17 14 0 20 15 6 15 8 3 16 -12 8 -11 10 5 10 17 0 20 8 22 45 l2 45 -759 0
-760 0 0 -1115z m150 830 c-7 -9 -6 -16 4 -25 10 -7 13 -22 10 -38 -3 -15 0
-49 6 -77 5 -27 12 -72 15 -100 9 -91 16 -117 48 -174 17 -31 34 -58 37 -61
19 -15 140 -184 140 -196 0 -35 27 -94 47 -105 13 -7 23 -20 23 -30 0 -10 4
-20 9 -23 5 -3 11 -19 13 -36 3 -16 2 -28 0 -25 -2 2 -15 -10 -27 -28 -12 -18
-27 -31 -33 -30 -7 2 -12 -2 -12 -7 0 -6 4 -10 9 -10 5 0 11 -8 13 -17 2 -10
10 -18 18 -19 46 -3 48 -4 43 -24 -3 -11 -9 -17 -14 -14 -20 12 -7 -26 13 -40
18 -13 19 -16 6 -16 -24 0 -50 40 -37 56 12 14 3 38 -11 29 -5 -3 -16 3 -26
12 -17 18 -22 20 -56 22 -9 0 -23 13 -31 29 -8 15 -22 41 -31 57 -9 17 -16 35
-16 42 0 7 -9 17 -20 23 -11 6 -20 21 -20 34 0 13 -7 43 -15 66 -19 54 -19 69
0 44 8 -10 15 -31 15 -45 0 -24 25 -58 34 -48 2 2 2 24 -1 50 -4 37 -11 49
-39 68 -29 20 -61 60 -125 158 -9 13 -20 55 -23 93 -4 38 -10 72 -14 74 -12 7
-13 115 -1 137 8 15 8 24 0 32 -14 14 -14 124 0 132 5 4 14 18 19 31 6 16 15
22 25 18 11 -5 13 -10 5 -19z m1037 -674 c7 -1 19 -13 27 -28 14 -26 15 -27
16 -5 0 29 22 28 57 -2 l28 -24 -30 -7 c-53 -12 -51 -15 4 -10 30 2 59 9 65
15 5 5 22 10 36 10 21 0 31 -8 44 -37 9 -21 17 -42 17 -48 0 -5 7 -18 16 -27
8 -9 12 -22 7 -29 -4 -7 5 -4 19 7 15 10 27 25 28 32 1 6 3 17 4 22 1 6 3 15
4 20 2 21 31 9 37 -15 3 -14 10 -22 15 -19 5 3 9 -2 9 -10 0 -22 53 -58 113
-77 40 -12 58 -25 79 -55 28 -40 36 -74 18 -74 -5 0 -10 -6 -10 -14 0 -7 -7
-19 -15 -26 -12 -10 -15 -10 -15 0 0 22 -13 2 -15 -23 -2 -16 -8 -21 -24 -20
-12 2 -20 -2 -18 -10 1 -7 -8 -12 -20 -11 -17 0 -23 -5 -23 -20 0 -12 -3 -16
-8 -10 -13 20 -47 33 -63 23 -12 -7 -11 -9 2 -9 19 0 33 -26 16 -28 -7 0 -21
-2 -32 -4 -12 -2 -20 3 -21 12 -2 30 -4 31 -20 16 -8 -9 -20 -14 -25 -10 -6 3
-21 -2 -35 -11 -14 -9 -39 -15 -57 -13 -28 4 -30 5 -12 13 11 5 26 15 33 22
12 11 41 18 64 14 4 0 12 8 18 19 6 12 18 19 27 18 9 -2 18 3 20 10 3 7 -5 12
-21 12 -36 0 -33 22 7 53 37 28 48 64 15 46 -10 -5 -18 -14 -18 -18 0 -14 -32
-23 -43 -12 -5 5 -17 7 -26 4 -10 -3 -7 3 8 16 13 12 31 21 41 21 15 0 37 28
28 35 -6 5 -48 -15 -48 -22 0 -4 -22 -8 -50 -8 -38 -1 -54 -6 -70 -23 -13 -14
-33 -22 -53 -22 -24 0 -28 3 -17 10 11 7 12 10 2 10 -10 0 -10 4 2 16 29 29
12 46 -37 37 -24 -5 -26 -3 -21 21 3 19 1 24 -10 20 -8 -3 -33 4 -56 16 -35
18 -44 19 -52 8 -7 -10 -11 -10 -15 0 -2 6 -13 12 -24 12 -10 0 -19 5 -19 10
0 6 14 10 31 10 27 0 30 2 19 15 -16 20 -50 15 -76 -11 -21 -21 -21 -21 -33
-1 -10 15 -10 21 -1 27 7 4 9 16 5 29 -3 12 -2 21 4 21 5 0 13 16 17 35 3 19
11 39 18 44 12 10 61 18 86 15 8 -2 20 -3 27 -3z"/>
<path d="M1990 1384 c-25 -13 -37 -23 -27 -24 16 0 21 -16 20 -57 -1 -7 3 -13
9 -13 5 0 6 17 3 38 -4 28 -3 32 4 16 5 -12 23 -26 40 -32 17 -6 31 -14 31
-17 0 -3 -4 -3 -10 0 -5 3 -10 0 -10 -7 0 -9 -2 -10 -8 -2 -5 9 -11 8 -20 -2
-11 -12 -10 -14 3 -14 9 0 18 -7 21 -15 8 -20 24 -19 24 1 0 12 7 15 24 12 20
-4 26 0 31 19 7 28 -2 63 -15 63 -6 0 -8 14 -6 30 3 29 2 30 -33 29 -20 -1
-56 -12 -81 -25z"/>
</g>
</svg>
